<?xml version="1.0" encoding="utf-8"?>
<!-- Generator: Adobe Illustrator 25.1.0, SVG Export Plug-In . SVG Version: 6.00 Build 0)  -->
<svg version="1.1" id="Layer_1" xmlns="http://www.w3.org/2000/svg" xmlns:xlink="http://www.w3.org/1999/xlink" x="0px" y="0px"
	 viewBox="0 0 640 512" style="enable-background:new 0 0 640 512;" xml:space="preserve">
<style type="text/css">
	.st0{fill:#FFFFFF;}
</style>
<path class="st0" d="M407.9,319.9L177.1,317c-1.4,0-2.8-0.7-3.6-1.9c-0.8-1.2-1-2.8-0.5-4.1c0.8-2.3,2.9-3.9,5.4-4.1l232.9-2.9
	c27.6-1.3,57.5-23.6,68-50.8l13.3-34.5c0.4-0.9,0.5-1.9,0.5-2.9c0-0.5-0.1-1.1-0.2-1.6C474.2,132.2,392.7,81.1,311,99.8
	c-51.1,11.7-92.6,49-109.7,98.6c-30-22.7-72.7-16.7-95.4,13.3c-12.5,16.5-16.8,37.8-11.6,57.9C41.9,271.1,0,313.7,0,366.1
	c0,4.7,0.3,9.3,1,14c0.3,2.2,2.2,3.9,4.4,3.9l426.1,0.1c0,0,0.1,0,0.1,0c2.4,0,4.6-1.7,5.3-4l3.3-11.3c3.9-13.4,2.4-25.8-4.1-34.9
	C430.1,325.4,420.1,320.5,407.9,319.9z M513.9,221.1c-2.1,0-4.3,0.1-6.4,0.2c-1.5,0.1-2.9,1.2-3.3,2.7l-9.1,31.2
	c-3.9,13.4-2.4,25.8,4.1,34.9c6,8.4,16.1,13.3,28.2,13.9l49.2,2.9c1.4,0,2.7,0.7,3.5,1.9c0.8,1.2,1,2.8,0.5,4.2
	c-0.8,2.3-2.9,3.9-5.4,4.1l-51.1,2.9c-27.8,1.3-57.7,23.6-68.1,50.8l-3.7,9.6c-0.5,1.4,0.2,3,1.6,3.5c0.3,0.1,0.6,0.2,0.9,0.2
	c0,0,0.1,0,0.1,0h175.9c2.1,0,3.9-1.4,4.5-3.4c3.1-11.1,4.7-22.5,4.7-34C640,277.3,583.5,221.1,513.9,221.1z"/>
</svg>
