<?xml version="1.0" encoding="utf-8"?>
<!-- Generator: Adobe Illustrator 25.1.0, SVG Export Plug-In . SVG Version: 6.00 Build 0)  -->
<svg version="1.1" id="Layer_1" xmlns="http://www.w3.org/2000/svg" xmlns:xlink="http://www.w3.org/1999/xlink" x="0px" y="0px"
	 viewBox="0 0 640 512" style="enable-background:new 0 0 640 512;" xml:space="preserve">
<style type="text/css">
	.st0{fill:#FFFFFF;}
</style>
<path class="st0" d="M0,336c0,79.5,64.5,144,144,144h368c70.7,0,128-57.3,128-128c0-61.9-44-113.6-102.4-125.4
	c4.1-10.7,6.4-22.4,6.4-34.6c0-53-43-96-96-96c-19.7,0-38.1,6-53.3,16.2C367,64.2,315.3,32,256,32c-88.4,0-160,71.6-160,160
	c0,2.7,0.1,5.4,0.2,8.1C40.2,219.8,0,273.2,0,336z"/>
</svg>
