<?xml version="1.0" encoding="utf-8"?>
<!-- Generator: Adobe Illustrator 25.1.0, SVG Export Plug-In . SVG Version: 6.00 Build 0)  -->
<svg version="1.1" id="Layer_1" xmlns="http://www.w3.org/2000/svg" xmlns:xlink="http://www.w3.org/1999/xlink" x="0px" y="0px"
	 viewBox="0 0 404 404" style="enable-background:new 0 0 404 404;" xml:space="preserve">
<style type="text/css">
	.st0{opacity:4.000000e-02;}
	.st1{fill:none;stroke:#FFFFFF;stroke-width:0.8585;stroke-miterlimit:2.02;}
	.st2{fill:#FFFFFF;}
</style>
<g class="st0">
	<g>
		<path class="st1" d="M388.3,115.6l135.3,16.1 M468.1,444.4l-99-72.2l-106.6-38.9L156,271.7L20.2,302.5L149,385.8l-85.1,58.3
			L20.2,302.5L-99.5,249l151-56.1l-67.2-77.3l79.5-75.5l-98.7-72"/>
		<path class="st1" d="M-15.7,115.6l135.3,16.2l77.3,61.1L304.5,249l-148.7,22.5L51.3,192.7 M186.8,457L149,385.8"/>
		<path class="st1" d="M262.6,333.3l29.3,91.9l77.3-53l55-69.7L304.5,249L262.6,333.3L149,385.8l7.1-114.1l40.9-78.8l75.2-57.1
			l116.1-20.2L291.6,21L186.8,53L149-18.2L63.9,40.1l55.8,91.7l-68.2,61.1L20.2,302.5l-55,69.7l99,72.2"/>
		<path class="st1" d="M262.6-70.7l29.5,92.2l77-53.3 M304.5,249l-32.3-113.1l-152.5-4L186.8,53 M455.5,192.9l-183.3-57.1
			 M196.9,192.9H51.5"/>
		<path class="st1" d="M-112.1,21.2l176,18.9l123,12.9l85.3,82.8L291.6,21l176.5,19.4l-79.8,75.2l67.2,77.3l-151,56.1l64.6,123.2
			 M149-18.2L291.6,21 M291.9,425.2L149,385.8 M20.2-101.5L64.1,40.4 M51.5,192.9l-183.3-57.1"/>
	</g>
	<g>
		<circle class="st2" cx="388.3" cy="115.6" r="4"/>
		<circle class="st2" cx="272.2" cy="135.8" r="4"/>
		<circle class="st2" cx="304.5" cy="249" r="4"/>
		<circle class="st2" cx="369.2" cy="372.2" r="4"/>
		<circle class="st2" cx="262.6" cy="333.3" r="4"/>
		<circle class="st2" cx="156" cy="271.7" r="4"/>
		<circle class="st2" cx="149" cy="385.8" r="4"/>
		<circle class="st2" cx="20.2" cy="302.5" r="4"/>
		<circle class="st2" cx="51.5" cy="192.9" r="4"/>
		<circle class="st2" cx="64.1" cy="40.4" r="4"/>
		<circle class="st2" cx="186.8" cy="53" r="4"/>
		<circle class="st2" cx="291.9" cy="21.2" r="4"/>
		<circle class="st2" cx="119.7" cy="131.8" r="4"/>
		<circle class="st2" cx="196.9" cy="192.9" r="4"/>
	</g>
</g>
</svg>
