<?xml version="1.0" encoding="utf-8"?>
<!-- Generator: Adobe Illustrator 25.1.0, SVG Export Plug-In . SVG Version: 6.00 Build 0)  -->
<svg version="1.1" id="Layer_1" xmlns="http://www.w3.org/2000/svg" xmlns:xlink="http://www.w3.org/1999/xlink" x="0px" y="0px"
	 viewBox="0 0 96 96" style="enable-background:new 0 0 96 96;" xml:space="preserve">
<style type="text/css">
	.st0{fill:#FFFFFF;}
</style>
<path class="st0" d="M5,14.7v67.7c0,5.3,4.4,9.7,9.7,9.7h67.7c5.3,0,9.7-4.3,9.7-9.7V14.7C92,9.4,87.7,5,82.3,5H14.7
	C9.4,5,5,9.4,5,14.7z M56.6,50.7H46.3v31.7h-8.2V50.7h-10v-7h28.5C56.6,43.7,56.6,50.7,56.6,50.7z M58.2,80.5v-8.5
	c0,0,4.6,3.5,10.1,3.5s5.3-3.6,5.3-4.1c0-5.3-15.7-5.3-15.7-16.9c0-15.8,22.8-9.5,22.8-9.5l-0.2,7.5c0,0-3.9-2.5-8.2-2.5
	c-4.3,0-5.9,2.1-5.9,4.2c0,5.7,15.8,5.1,15.8,16.6C82.3,88.4,58.2,80.5,58.2,80.5z"/>
</svg>
