<?xml version="1.0" encoding="utf-8"?>
<!-- Generator: Adobe Illustrator 25.1.0, SVG Export Plug-In . SVG Version: 6.00 Build 0)  -->
<svg version="1.1" id="Layer_1" xmlns="http://www.w3.org/2000/svg" xmlns:xlink="http://www.w3.org/1999/xlink" x="0px" y="0px"
	 viewBox="0 0 448 512" style="enable-background:new 0 0 448 512;" xml:space="preserve">
<style type="text/css">
	.st0{fill:#FFFFFF;}
</style>
<path class="st0" d="M288,32c-12.9,0-24.6,7.8-29.6,19.8s-2.2,25.7,6.9,34.9l41.4,41.3L169.4,265.4c-12.5,12.5-12.5,32.8,0,45.3
	s32.8,12.5,45.3,0L352,173.3l41.4,41.4c9.2,9.2,22.9,11.9,34.9,6.9s19.8-16.6,19.8-29.6V64c0-17.7-14.3-32-32-32H288z M80,64
	C35.8,64,0,99.8,0,144v256c0,44.2,35.8,80,80,80h256c44.2,0,80-35.8,80-80v-80c0-17.7-14.3-32-32-32s-32,14.3-32,32v80
	c0,8.8-7.2,16-16,16H80c-8.8,0-16-7.2-16-16V144c0-8.8,7.2-16,16-16h80c17.7,0,32-14.3,32-32s-14.3-32-32-32H80z"/>
</svg>
